<svg width="111" height="54" viewBox="0 0 111 54" fill="none" xmlns="http://www.w3.org/2000/svg">
<g clip-path="url(#clip0_727_10404)">
<path d="M24.0762 12.0933V8.92783L9.50142 8.89648L9.47009 32.0031C9.47009 32.1598 9.47009 32.3322 9.47792 32.4889C9.78336 37.1745 12.2425 40.2381 15.4143 42.7846C15.4457 42.8081 15.4535 42.816 15.4613 42.8238L16.73 43.6935L18.0066 42.8316C18.0144 42.8238 18.0379 42.8081 18.0693 42.7925C18.0693 42.7925 18.0693 42.7925 18.0771 42.7846C19.2597 41.8914 20.6772 40.5123 21.5778 39.2587C22.8701 37.4722 23.9978 35.0902 24.0448 32.1598L24.0683 21.4801L17.0277 21.4723L20.8573 18.5732C22.8779 17.0296 24.0762 14.6398 24.0762 12.0933ZM19.5338 24.3244L19.526 32.0188C19.5181 34.3537 18.453 36.2107 16.7614 37.9345C15.0619 36.2107 14.0125 34.3381 14.0046 32.0109L14.0125 24.3166L19.5338 24.3244ZM17.9361 16.9043L14.0203 20.8533L14.0281 12.9944L19.5573 13.0022C19.5494 14.4596 18.9699 15.8622 17.9361 16.9043Z" fill="#00F4FF"/>
<path d="M0.416626 31.9875C0.416626 35.2313 1.1528 38.3733 2.60949 41.2959C4.87284 46.2322 10.4882 50.9021 13.6913 52.4144L16.73 53.9344L19.7687 52.4144C22.9953 50.9021 28.6106 46.2401 30.8818 41.3273C32.3463 38.3968 33.106 35.2627 33.106 32.0188L33.1295 21.4645L28.6028 21.4567L28.5793 32.011C28.6263 40.2303 22.361 46.0677 16.73 48.8649C13.9419 47.4781 8.91398 44.0697 6.65846 39.2665C5.51504 36.9629 4.9355 34.5105 4.94333 31.9796L4.98249 4.36765L28.6106 4.39899L28.6028 12.7045L31.1324 10.7927C32.3933 9.83676 33.1373 8.34803 33.1373 6.77312L33.1608 0.340249L0.471448 0.2854L0.416626 31.9875Z" fill="#00F4FF"/>
<path d="M57.9089 11.5136C59.7258 10.5028 60.9162 8.73198 60.9162 6.38136C60.9241 2.55768 57.7914 0.254074 53.9147 0.254074L44.5637 0.238403L44.5559 4.63407L49.2471 4.6419L45.8873 7.18057C45.0414 7.81524 44.548 8.81034 44.5402 9.87595L44.5167 23.729L55.6455 23.7446C59.2794 23.7525 62.3103 20.8299 62.3024 17.1942C62.3103 14.1698 60.7361 12.2187 57.9089 11.5136ZM49.388 4.6419L53.9069 4.64974C55.3479 4.64974 56.5227 5.76236 56.5227 7.19624C56.5227 8.63012 55.3479 9.71925 53.8991 9.71925L49.3802 9.71141L49.388 4.6419ZM55.3009 19.349L49.3645 19.3411L49.3724 14.1071L55.3088 14.1149C56.7498 14.1149 57.9245 15.2902 57.9245 16.7398C57.9245 18.1736 56.7498 19.349 55.3009 19.349Z" fill="white"/>
<path d="M69.7973 19.3647L69.8052 14.1306L78.8586 14.1463L78.8664 9.75062L69.813 9.73495L69.8208 4.67327L80.1116 4.68894L80.1195 0.293282L64.9965 0.269775L64.9887 4.66544L69.6798 4.67327L66.3201 7.21195C65.4742 7.84661 64.9808 8.84171 64.973 9.90733L64.9495 23.7603L80.2056 23.7838L80.2134 19.3882L69.7973 19.3647Z" fill="white"/>
<path d="M91.5537 4.70467H92.7519L89.3922 7.24334C88.5463 7.87801 88.0529 8.8731 88.0451 9.93872L88.0216 23.7917L92.8538 23.7996L92.8851 4.70467L98.7823 4.7125L98.7902 0.316841L82.1635 0.293335L82.1557 4.689L88.0529 4.69683L91.5537 4.70467Z" fill="white"/>
<path d="M54.0165 46.3811C50.8995 46.3733 48.4874 43.5212 48.4952 38.8513V38.7494C48.503 34.1892 50.4139 31.2744 54.5569 31.2823C60.0939 31.2901 61.6681 36.6182 61.6681 36.6182L61.6759 29.8876C59.8668 28.0384 57.6191 26.7612 54.134 26.7612C47.9313 26.7534 43.4986 31.58 43.4829 38.6946V38.9923C43.4751 46.1695 47.6259 50.91 53.7894 50.9178C57.3763 50.9256 59.624 49.4134 61.7385 47.2352L61.7464 40.7396C61.762 40.7239 59.4439 46.3889 54.0165 46.3811Z" fill="white"/>
<path d="M64.9643 27.1057L64.9301 50.5884L69.7936 50.5955L69.8277 27.1127L64.9643 27.1057Z" fill="white"/>
<path d="M105.439 27.1608L100.772 36.3831L96.1509 27.1452L90.6531 27.1373L98.2733 41.3743L98.2655 50.6357L103.129 50.6436L103.137 41.3194L110.804 27.1687L105.439 27.1608Z" fill="white"/>
<path d="M72.9065 31.5096L78.8037 31.5174L82.2967 31.5252H83.4949L80.1351 34.0639C79.2893 34.6986 78.7959 35.6937 78.7881 36.7593L78.7646 50.6123L83.5967 50.6201L83.628 31.5252L89.5253 31.5331L89.5331 27.1374L72.9065 27.1139V31.5096V31.5096Z" fill="white"/>
</g>
<defs>
<clipPath id="clip0_727_10404">
<rect width="111" height="54" fill="white"/>
</clipPath>
</defs>
</svg>
